<?xml version="1.0" encoding="iso-8859-1"?>
<!-- Generator: Adobe Illustrator 18.1.1, SVG Export Plug-In . SVG Version: 6.00 Build 0)  -->
<svg xmlns="http://www.w3.org/2000/svg" xmlns:xlink="http://www.w3.org/1999/xlink" version="1.1" id="Capa_1" x="0px" y="0px" viewBox="0 0 611.989 611.989" style="enable-background:new 0 0 611.989 611.989;" xml:space="preserve" width="512px" height="512px">
<g>
	<g>
		<path d="M605.686,244.22l-274.8-231.8c-14-11.8-35.8-11.8-49.8,0l-274.8,231.8c-7.5,6.3-8.4,17.4-2.1,24.9s17.4,8.4,24.9,2.1    l27.2-22.9v329.5c0,16.9,13.7,30.6,30.6,30.6h438.3c16.9,0,30.6-13.7,30.6-30.6v-329.5l27.2,22.9c3.3,2.8,7.4,4.2,11.4,4.2    c5,0,10-2.1,13.5-6.3C614.086,261.72,613.186,250.52,605.686,244.22z M520.386,573.12h-428.8v-354.6l212.3-179.1    c0.9-0.7,3.4-0.7,4.2,0l212.3,179.1V573.12L520.386,573.12z" fill="#91DC5A"/>
		<path d="M299.286,316.92v15.3c-4.4-16.3-12.7-33.1-30.5-47.7c-27.1-22.1-67.9-30-94.7-30c-25.9,0-29,6.8-30,9    c-0.7,1.5-1.9,5.5,1.9,9.7c5.7,6.3,7,18.2,8.5,31.9c2.6,24.1,5.9,54,34.3,77.2c26.5,21.7,65.2,29.4,92.5,29.4    c7.2,0,13.2-0.5,18-1.5v94.8c0,6.5,5.3,11.8,11.8,11.8s11.8-5.3,11.8-11.8v-14.9c7.7-3.7,18.2-4.3,30.4-5.1    c24.3-1.4,54.4-3.3,80.1-31.3c33-36,40-101.2,32.7-117.7c-2.5-5.7-6.5-6.5-8.7-6.5c-2.1,0-4.1,0.8-6,2.3c-6.7,5.3-18.6,6-32.3,6.7    c-24.2,1.3-54.3,2.9-79,30c-6.8,7.4-12.4,16-17.1,25v-76.8c0-6.5-5.3-11.8-11.8-11.8S299.286,310.42,299.286,316.92z     M292.486,389.22c-2.9-2.2-6.8-5.6-11.4-9.7c-2.3-2.1-4.7-4.4-7.2-6.8c-0.3-0.3-0.6-0.6-0.9-0.9l-0.5-0.5l-0.1-0.1l0,0    c0,0,0.2,0.2,0.1,0.1h-0.1l-0.2-0.2c-0.6-0.5-1.2-1.1-1.8-1.6c-1.3-1-2.6-2.1-3.9-3.1c-5.5-4.1-11.9-7.8-18.8-11.4    c-6.9-3.6-14.2-7.2-20.9-11.4c-3.4-2.1-6.6-4.4-9.5-6.8s-5.5-5-7.7-7.7c-2.1-2.7-3.8-5.4-4.8-8c-0.3-0.6-0.5-1.2-0.7-1.9    c-0.2-0.6-0.4-1.2-0.6-1.7c-0.3-1.2-0.5-2.2-0.7-3.1c-0.1-1-0.2-1.8-0.3-2.6c-0.1-0.7,0-1.3,0-1.8c0-1,0.1-1.5,0.1-1.5    s0.3,0.4,0.9,1.3c0.3,0.4,0.6,1,1,1.5s0.9,1.2,1.4,1.9c0.6,0.7,1.2,1.4,1.9,2.2c0.8,0.7,1.4,1.5,2.3,2.3c1.7,1.6,3.8,3.1,6.1,4.6    s5,2.9,7.9,4.3s6.1,2.7,9.5,4.2c6.8,2.8,14.3,5.9,21.9,9.8l20.9,15c1.5,1.5,2.9,3.1,4.1,4.7c0.6,0.8,1.2,1.6,1.8,2.5l0.2,0.3    l0.1,0.1c-0.1-0.1,0.2,0.2,0.1,0.2l0,0l0.1,0.1l0.4,0.6c0.2,0.4,0.5,0.8,0.7,1.1c1.8,3,3.5,5.9,5,8.6c0.7,1.4,1.5,2.7,2.1,3.9    c0.6,1.3,1.2,2.5,1.8,3.6c1.1,2.3,2,4.4,2.7,6.1c1.4,3.4,2.1,5.5,2.1,5.5S295.386,391.52,292.486,389.22z M324.986,471.62    c2.5-2.6,6.3-6.1,10.9-10.3c2.3-2,4.9-4.2,7.6-6.4c0.3-0.3,0.7-0.6,1-0.8l0.5-0.4l0.1-0.1l0,0c0,0-0.3,0.2-0.1,0.1l0.1-0.1    l0.2-0.2c0.6-0.5,1.2-1.1,1.8-1.6c1.2-1.2,2.4-2.3,3.5-3.6c4.6-5,9-11,13.4-17.4s8.7-13.3,13.7-19.5c2.5-3.1,5.1-6.1,7.8-8.7    c2.7-2.7,5.6-5,8.5-6.8s5.8-3.2,8.4-3.9c0.6-0.2,1.3-0.4,1.9-0.5s1.2-0.3,1.8-0.4c1.2-0.1,2.2-0.3,3.2-0.3s1.9,0,2.6,0    s1.3,0.1,1.8,0.2c1,0.2,1.5,0.2,1.5,0.2s-0.5,0.2-1.4,0.7c-0.4,0.2-1,0.5-1.6,0.8s-1.3,0.7-2,1.2s-1.5,1-2.4,1.6    c-0.8,0.7-1.7,1.2-2.5,2.1c-1.8,1.5-3.5,3.4-5.2,5.5c-1.7,2.2-3.4,4.6-5.1,7.4s-3.4,5.8-5.2,9c-3.6,6.4-7.4,13.6-12.2,20.7    c-2.4,3.5-5,7-7.9,10.2s-6,6.3-9.4,8.9c-1.7,1.3-3.4,2.5-5.1,3.6c-0.9,0.5-1.8,1-2.6,1.5l-0.3,0.2h-0.1c0.1-0.1-0.2,0.1-0.2,0.1    l0,0l-0.2,0.1l-0.6,0.3c-0.4,0.2-0.8,0.4-1.2,0.6c-3.2,1.5-6.3,2.8-9.1,4c-1.4,0.6-2.8,1.2-4.1,1.7c-1.3,0.5-2.6,1-3.8,1.4    c-2.4,0.8-4.6,1.5-6.3,2c-3.6,1-5.7,1.5-5.7,1.5S322.386,474.22,324.986,471.62z" fill="#91DC5A"/>
	</g>
</g>
<g>
</g>
<g>
</g>
<g>
</g>
<g>
</g>
<g>
</g>
<g>
</g>
<g>
</g>
<g>
</g>
<g>
</g>
<g>
</g>
<g>
</g>
<g>
</g>
<g>
</g>
<g>
</g>
<g>
</g>
</svg>
